<mxfile host="app.diagrams.net" modified="2021-04-02T01:50:18.682Z" agent="5.0 (Windows NT 6.1; Win64; x64) AppleWebKit/537.36 (KHTML, like Gecko) Chrome/87.0.4280.88 Safari/537.36" etag="QNreKErQsFDnN6ITjQDW" version="14.5.4" type="github">
  <diagram id="XKIGvMzJqtwvzqI4G3Xd" name="Page-1">
    <mxGraphModel dx="868" dy="450" grid="1" gridSize="10" guides="1" tooltips="1" connect="1" arrows="1" fold="1" page="1" pageScale="1" pageWidth="827" pageHeight="1169" math="0" shadow="0">
      <root>
        <mxCell id="0" />
        <mxCell id="1" parent="0" />
        <mxCell id="hsk3Au6-eQre9q5OVGAf-13" style="edgeStyle=orthogonalEdgeStyle;rounded=0;orthogonalLoop=1;jettySize=auto;html=1;exitX=0.5;exitY=1;exitDx=0;exitDy=0;" edge="1" parent="1" source="hsk3Au6-eQre9q5OVGAf-2">
          <mxGeometry relative="1" as="geometry">
            <mxPoint x="400" y="330" as="targetPoint" />
          </mxGeometry>
        </mxCell>
        <mxCell id="hsk3Au6-eQre9q5OVGAf-2" value="&lt;span style=&quot;font-size: 18px&quot;&gt;样品筛选&lt;/span&gt;" style="rounded=1;whiteSpace=wrap;html=1;fillColor=#dae8fc;strokeColor=#6c8ebf;" vertex="1" parent="1">
          <mxGeometry x="340" y="220" width="120" height="60" as="geometry" />
        </mxCell>
        <mxCell id="hsk3Au6-eQre9q5OVGAf-12" style="edgeStyle=orthogonalEdgeStyle;rounded=0;orthogonalLoop=1;jettySize=auto;html=1;exitX=0.5;exitY=1;exitDx=0;exitDy=0;entryX=0.5;entryY=0;entryDx=0;entryDy=0;" edge="1" parent="1" source="hsk3Au6-eQre9q5OVGAf-4" target="hsk3Au6-eQre9q5OVGAf-2">
          <mxGeometry relative="1" as="geometry" />
        </mxCell>
        <mxCell id="hsk3Au6-eQre9q5OVGAf-4" value="&lt;span style=&quot;font-size: 18px&quot;&gt;样品采集&lt;/span&gt;" style="rounded=1;whiteSpace=wrap;html=1;fillColor=#dae8fc;strokeColor=#6c8ebf;" vertex="1" parent="1">
          <mxGeometry x="340" y="110" width="120" height="60" as="geometry" />
        </mxCell>
        <mxCell id="hsk3Au6-eQre9q5OVGAf-11" value="&lt;span style=&quot;font-size: 18px&quot;&gt;结果分析&lt;/span&gt;" style="rounded=1;whiteSpace=wrap;html=1;fillColor=#dae8fc;strokeColor=#6c8ebf;" vertex="1" parent="1">
          <mxGeometry x="340" y="440" width="120" height="60" as="geometry" />
        </mxCell>
        <mxCell id="hsk3Au6-eQre9q5OVGAf-15" style="edgeStyle=orthogonalEdgeStyle;rounded=0;orthogonalLoop=1;jettySize=auto;html=1;exitX=0.5;exitY=1;exitDx=0;exitDy=0;entryX=0.5;entryY=0;entryDx=0;entryDy=0;" edge="1" parent="1" source="hsk3Au6-eQre9q5OVGAf-14" target="hsk3Au6-eQre9q5OVGAf-11">
          <mxGeometry relative="1" as="geometry" />
        </mxCell>
        <mxCell id="hsk3Au6-eQre9q5OVGAf-14" value="&lt;span style=&quot;font-size: 18px&quot;&gt;同位素&lt;/span&gt;&lt;br style=&quot;font-size: 18px&quot;&gt;&lt;span style=&quot;font-size: 18px&quot;&gt;成分分析&lt;/span&gt;" style="rounded=1;whiteSpace=wrap;html=1;fillColor=#dae8fc;strokeColor=#6c8ebf;" vertex="1" parent="1">
          <mxGeometry x="340" y="330" width="120" height="60" as="geometry" />
        </mxCell>
      </root>
    </mxGraphModel>
  </diagram>
</mxfile>
